<?xml version="1.0" standalone="no"?>
<!DOCTYPE svg PUBLIC "-//W3C//DTD SVG 20010904//EN"
 "http://www.w3.org/TR/2001/REC-SVG-20010904/DTD/svg10.dtd">
<svg version="1.0" xmlns="http://www.w3.org/2000/svg"
 width="225.000000pt" height="225.000000pt" viewBox="0 0 225.000000 225.000000"
 preserveAspectRatio="xMidYMid meet">
<metadata>
Created by potrace 1.15, written by Peter Selinger 2001-2017
</metadata>
<g transform="translate(0.000000,225.000000) scale(0.100000,-0.100000)"
fill="#000000" stroke="none">
<path d="M645 2128 c-19 -17 -107 -221 -335 -771 -171 -411 -310 -756 -310
-767 0 -48 38 -68 540 -276 272 -113 506 -208 520 -210 28 -6 721 275 752 305
20 19 438 1022 438 1051 0 50 -31 65 -792 380 -412 171 -757 310 -767 310 -11
0 -31 -10 -46 -22z m760 -450 c347 -143 633 -263 638 -267 12 -12 -329 -826
-345 -824 -8 2 -100 39 -207 83 -106 44 -205 80 -221 80 -15 0 -37 -8 -49 -17
-11 -10 -59 -110 -106 -222 -47 -113 -87 -206 -89 -208 -4 -5 -807 325 -819
336 -6 6 167 432 519 1280 11 25 18 32 31 26 10 -3 302 -123 648 -267z m115
-1209 c0 -6 -268 -119 -282 -119 -3 0 10 37 29 83 19 45 39 92 43 104 9 21 10
21 109 -20 56 -23 101 -45 101 -48z"/>
<path d="M866 1249 c-38 -16 -71 -30 -72 -32 -2 -1 28 -77 66 -167 45 -108 73
-164 82 -162 42 9 578 238 578 246 0 9 -49 134 -56 145 -3 4 -42 -11 -286
-112 l-156 -65 -37 89 c-20 49 -40 89 -43 88 -4 0 -38 -14 -76 -30z"/>
</g>
</svg>
